<svg width="159" height="50" viewBox="0 0 159 50" fill="none" xmlns="http://www.w3.org/2000/svg">
<path fill-rule="evenodd" clip-rule="evenodd" d="M49.9387 26.6585C49.9203 26.9348 49.9032 27.2099 49.8762 27.4824C49.8603 27.645 49.837 27.805 49.8186 27.965C49.7892 28.2113 49.761 28.4564 49.7254 28.699C49.6997 28.869 49.669 29.0378 49.6396 29.2066C49.6004 29.4379 49.5624 29.6692 49.517 29.898C49.4827 30.0705 49.4435 30.2406 49.4055 30.4118C49.3564 30.6344 49.3074 30.8557 49.2522 31.0757C49.2093 31.2483 49.1615 31.4183 49.1149 31.5896C49.0561 31.8047 48.9973 32.0197 48.9323 32.2335C48.8173 32.6146 48.6931 32.9927 48.5596 33.3675C48.3665 33.9071 48.1559 34.44 47.9283 34.9654C47.7696 35.3255 47.6045 35.6828 47.4331 36.0369C47.335 36.2356 47.2333 36.4307 47.1315 36.6257C47.0506 36.7783 46.9709 36.9296 46.8876 37.0808C46.7792 37.2752 46.6684 37.4682 46.5554 37.6597C46.4695 37.8048 46.385 37.9498 46.2967 38.0936C46.1778 38.2874 46.054 38.4774 45.9289 38.6674C45.8395 38.8037 45.7524 38.9413 45.6605 39.075C45.5281 39.2701 45.3896 39.4601 45.2511 39.6514C45.1603 39.7764 45.0733 39.9015 44.9801 40.0253C44.8281 40.2278 44.67 40.4241 44.5106 40.6216C44.4261 40.7279 44.3439 40.8354 44.2581 40.9405C44.0632 41.1755 43.8609 41.4043 43.6587 41.6331C43.6023 41.6944 43.5508 41.7594 43.4944 41.8207C43.2309 42.1095 42.9624 42.392 42.6853 42.6684C42.6363 42.7184 42.5824 42.7659 42.5321 42.8159C42.3066 43.0392 42.0769 43.258 41.8432 43.4723C41.7439 43.5636 41.6409 43.6486 41.5416 43.7373C41.3504 43.9061 41.1604 44.0749 40.9643 44.2375C40.8453 44.3362 40.724 44.43 40.6038 44.5263C40.42 44.6726 40.2373 44.8188 40.0498 44.9614C39.9186 45.0601 39.785 45.1539 39.6526 45.2502L39.237 45.5465C39.2763 45.5177 39.3192 45.494 39.3596 45.4665C39.313 45.499 39.2652 45.5265 39.2186 45.559C39.1794 45.5865 39.1414 45.6153 39.1022 45.6415C38.9612 45.7378 38.819 45.8303 38.6768 45.9228C38.4348 46.082 38.19 46.2366 37.9425 46.3867L37.8567 46.4367C37.8751 46.4267 37.8947 46.4167 37.9119 46.4054L37.6557 46.5567C37.4743 46.6642 37.2928 46.7693 37.109 46.8718L36.8675 47.0018C36.7265 47.0781 36.5831 47.1531 36.4396 47.2269L36.3649 47.2644C36.2545 47.3206 36.1467 47.3782 36.0351 47.4332C35.8856 47.5057 35.736 47.5782 35.584 47.6495L35.4614 47.7045C35.3266 47.767 35.1917 47.8283 35.0557 47.8883L34.9968 47.9145C34.8779 47.967 34.7565 48.0171 34.6364 48.0683C34.427 48.1567 34.2162 48.2413 34.0039 48.3221C33.8604 48.3771 33.7183 48.4309 33.5748 48.4834L33.3897 48.5522C33.2316 48.6084 33.071 48.6622 32.9104 48.7147C32.7792 48.7585 32.6481 48.8022 32.5157 48.8435L32.463 48.8597C32.3208 48.9048 32.1786 48.9473 32.0352 48.9885L31.6257 49.106C31.4504 49.1536 31.2764 49.2023 31.0998 49.2473L31.0103 49.2673L30.7897 49.3223C30.8289 49.3136 30.8657 49.3011 30.9049 49.2923L30.6499 49.3511C30.6953 49.3398 30.7431 49.3336 30.7897 49.3223C30.6818 49.3486 30.5727 49.3686 30.4648 49.3936L30.4489 49.3974C30.2736 49.4361 30.0995 49.4774 29.923 49.5124C29.7404 49.5486 29.5565 49.5799 29.3726 49.6112C29.2647 49.6299 29.1581 49.6537 29.0502 49.6712C29.1005 49.6624 29.1495 49.6499 29.1998 49.6412L28.9338 49.6862C28.973 49.6799 29.0122 49.6774 29.0502 49.6712L28.87 49.6974L28.7254 49.7224C28.4814 49.7587 28.235 49.7862 27.9886 49.8162C27.8293 49.835 27.6699 49.8587 27.5081 49.8737L27.4713 49.8787H27.448C27.3818 49.885 27.3132 49.8875 27.247 49.8937C27.095 49.9075 26.943 49.9162 26.791 49.9275C26.2749 49.965 25.7551 49.9887 25.2305 49.9937C25.1839 49.9937 25.1397 50 25.0944 50H24.9068C24.8627 50 24.821 49.995 24.7769 49.9937C24.2402 49.9879 23.7039 49.9649 23.1686 49.925C23.0227 49.9137 22.8756 49.905 22.7297 49.8925C22.6709 49.8862 22.6108 49.885 22.5508 49.8787H22.5287C22.092 49.8334 21.6567 49.7758 21.2232 49.7062C21.2857 49.7162 21.3494 49.7212 21.4119 49.7299C21.2563 49.7062 21.0969 49.6924 20.9424 49.6674L20.7218 49.6274C20.7806 49.6374 20.8382 49.6537 20.8971 49.6637C20.7917 49.6462 20.6887 49.6212 20.5833 49.6024L20.5465 49.5962C20.4815 49.5849 20.419 49.5687 20.3553 49.5574C19.9401 49.4819 19.5269 49.396 19.1159 49.2998L19.2336 49.3236L19.0399 49.2786L19.1159 49.2998C18.9382 49.2573 18.7653 49.2036 18.5888 49.1561L18.617 49.1636C18.5986 49.1598 18.5814 49.1536 18.5631 49.1486L18.5888 49.1561C18.2321 49.0623 17.8754 48.9685 17.5248 48.8597L17.4806 48.8472C17.4328 48.8322 17.3862 48.8147 17.3384 48.7985L17.3164 48.791C17.119 48.7272 16.9253 48.6534 16.7292 48.5847L16.9842 48.6734C16.8493 48.6272 16.7157 48.5784 16.5821 48.5297L16.7292 48.5847C16.4289 48.4797 16.1285 48.3746 15.8343 48.2584L15.686 48.1996C15.6651 48.1908 15.6455 48.1808 15.6247 48.1733C15.423 48.0905 15.2224 48.005 15.0228 47.917C15.154 47.9745 15.2864 48.0283 15.4175 48.0833C15.2226 48.002 15.0289 47.9158 14.8365 47.8308C14.899 47.8583 14.9603 47.8895 15.0228 47.917C14.8169 47.827 14.6085 47.7395 14.405 47.6432L14.3608 47.6245C14.3339 47.612 14.3057 47.6007 14.2787 47.587C14.1819 47.5419 14.0899 47.4869 13.9943 47.4407C13.7982 47.3432 13.602 47.2481 13.4084 47.1469C13.5738 47.2331 13.743 47.3131 13.911 47.3969C13.6705 47.2773 13.4318 47.1539 13.1951 47.0268C13.2674 47.0656 13.336 47.1081 13.4084 47.1469C13.2453 47.0606 13.0835 46.9756 12.9229 46.8868L12.8641 46.8555C12.804 46.823 12.7452 46.7868 12.6863 46.753C12.6091 46.7105 12.5368 46.6617 12.4608 46.6167L12.3958 46.5792L12.4289 46.598C12.1629 46.443 11.9006 46.2854 11.6419 46.1216C11.7191 46.1704 11.7927 46.2254 11.8711 46.2742C11.7449 46.1966 11.6223 46.1141 11.4985 46.0354L11.4874 46.0279L11.2987 45.9066C11.2031 45.8441 11.1123 45.7753 11.0179 45.7115C10.8157 45.5753 10.6085 45.4465 10.4099 45.3039C10.5583 45.4102 10.7164 45.504 10.8672 45.6065C10.6024 45.4265 10.3351 45.2502 10.0777 45.0589L10.1317 45.1001C10.1133 45.0876 10.0961 45.0726 10.0777 45.0589C9.83745 44.8788 9.60332 44.6913 9.36918 44.5038L9.35815 44.495L9.35569 44.4938C9.25272 44.41 9.1473 44.33 9.04433 44.245L9.0431 44.2437L9.00265 44.2087C8.71825 43.9711 8.4363 43.7286 8.16294 43.4785L8.14087 43.4598L8.12371 43.4435C8.02319 43.3523 7.93003 43.256 7.83196 43.1622C7.63828 42.9797 7.44459 42.7971 7.25704 42.6083L7.23375 42.5858C7.15652 42.5083 7.08296 42.427 7.00696 42.3483C7.06825 42.412 7.12587 42.4796 7.18839 42.5421C7.12587 42.4783 7.06703 42.4108 7.00451 42.3458L6.90399 42.2383C6.7336 42.0582 6.56198 41.8807 6.39649 41.6956L6.39404 41.6919C6.29965 41.5869 6.20771 41.4793 6.11577 41.3731L6.04467 41.2893C5.79505 40.9987 5.55146 40.7027 5.31406 40.4016C5.28955 40.3716 5.26625 40.3391 5.24296 40.3078C5.01236 40.013 4.78838 39.7129 4.5712 39.4076C4.54423 39.3689 4.51971 39.3288 4.49274 39.2913C4.35498 39.0935 4.21971 38.8938 4.08699 38.6925C4.01956 38.5899 3.94969 38.4874 3.88349 38.3824C3.85285 38.3349 3.82588 38.2861 3.79646 38.2386C3.67166 38.0397 3.54988 37.8388 3.43116 37.636C3.41645 37.6085 3.39928 37.5822 3.38335 37.556C3.33799 37.4797 3.29141 37.4047 3.24728 37.3271C3.21418 37.2696 3.18476 37.2096 3.15289 37.1509C3.03806 36.9433 2.92608 36.734 2.81701 36.5232C2.76429 36.4244 2.70913 36.3282 2.65887 36.2282C2.627 36.1656 2.5988 36.1019 2.56816 36.0394C2.45951 35.818 2.35489 35.5945 2.25434 35.3692C2.21389 35.2829 2.17098 35.1967 2.13175 35.1091L2.06801 34.9579C1.95401 34.6978 1.84736 34.434 1.74316 34.1689L1.65735 33.9576L1.6218 33.8589C1.50087 33.5393 1.38683 33.2171 1.27979 32.8924L1.23811 32.7724L1.22585 32.7336C0.92276 31.8049 0.67469 30.8584 0.482985 29.8992L0.473178 29.8492C0.453565 29.7504 0.44008 29.6504 0.421693 29.5529C0.367697 29.2696 0.318655 28.9853 0.274591 28.7002L0.256203 28.5902C0.236589 28.4501 0.224331 28.3076 0.207169 28.1663C0.172968 27.9102 0.143134 27.6534 0.117682 27.3962C0.11523 27.3712 0.110327 27.3462 0.109101 27.3199C0.105423 27.2861 0.106649 27.2511 0.104197 27.2161C0.0366604 26.4792 0.00189231 25.7395 0 24.9994C0 24.6781 0.0122585 24.358 0.024517 24.0392C0.0318721 23.8579 0.0392272 23.6766 0.049034 23.4953C0.0637442 23.254 0.0833578 23.0152 0.104197 22.7764C0.090713 22.9214 0.0723252 23.0664 0.0625184 23.2127C0.0723252 23.0652 0.0919388 22.9202 0.104197 22.7726C0.120133 22.5926 0.136069 22.4138 0.155683 22.235C0.182652 21.9974 0.213298 21.7599 0.246396 21.5236C0.270913 21.3461 0.29543 21.1698 0.323625 20.9947V20.9935C0.361626 20.7597 0.404531 20.5271 0.448661 20.2958V20.2933C0.481759 20.1195 0.514857 19.9457 0.551633 19.7732V19.7719C0.601538 19.542 0.654663 19.3127 0.710993 19.0843C0.751446 18.9143 0.793125 18.743 0.838482 18.5742V18.5717C0.898549 18.3466 0.962293 18.1253 1.02849 17.904L1.02971 17.899C1.07875 17.7315 1.12778 17.5627 1.18049 17.3977L1.18172 17.3939C1.25159 17.1751 1.32637 16.9588 1.40237 16.7425L1.40482 16.7363C1.46244 16.5725 1.51883 16.4087 1.58012 16.2462L1.58135 16.2424C1.66103 16.0286 1.74561 15.8186 1.8302 15.6085L1.83387 15.5998C1.89884 15.4397 1.96381 15.2784 2.03123 15.1197L2.03369 15.1159C2.1255 14.9063 2.2199 14.6979 2.31686 14.4908C2.38918 14.3345 2.46028 14.1769 2.53629 14.0232L2.53874 14.0182C2.6368 13.8169 2.73978 13.6193 2.84397 13.4218L2.8501 13.4093C2.92978 13.258 3.00824 13.1042 3.0916 12.9542L3.09405 12.9492C3.2007 12.7554 3.31347 12.5641 3.42503 12.3728L3.43361 12.359C3.52064 12.2115 3.60645 12.0627 3.69594 11.9164L3.69962 11.9114C3.81485 11.7239 3.93498 11.5401 4.05511 11.3563L4.06492 11.3401C4.15931 11.1975 4.25125 11.0537 4.34809 10.9125L4.35177 10.9062C4.47436 10.7262 4.60307 10.5499 4.73056 10.3723L4.74404 10.3548C4.84456 10.216 4.94263 10.0773 5.0456 9.94099L5.0505 9.93474C5.18045 9.7622 5.31651 9.59341 5.45258 9.42337L5.46729 9.40462C5.57394 9.27084 5.67937 9.13706 5.78847 9.00578C5.78972 9.00341 5.79138 9.00129 5.79337 8.99952C5.93067 8.83449 6.07409 8.67195 6.21629 8.51066L6.23468 8.49066C6.34745 8.36188 6.45778 8.2331 6.57301 8.10682L6.57914 8.10182C6.72379 7.94304 6.87457 7.78925 7.0229 7.63547L7.04374 7.61421C7.16265 7.49169 7.2791 7.36791 7.40046 7.24788C7.40245 7.24611 7.40411 7.244 7.40536 7.24163L7.44949 7.19662L7.40782 7.24038C7.53898 7.11035 7.67505 6.98532 7.80867 6.85779C7.69834 6.96282 7.58434 7.06409 7.47524 7.17036C7.60395 7.04409 7.73879 6.92281 7.86996 6.79903L7.89325 6.77778C8.01829 6.66025 8.14087 6.54147 8.26714 6.4277L8.27327 6.4227C8.40934 6.29892 8.55153 6.18139 8.69128 6.06011C8.5736 6.16139 8.45347 6.25766 8.33824 6.36143C8.47553 6.2389 8.61773 6.12263 8.75625 6.00385C8.76499 5.99604 8.77399 5.98854 8.78322 5.98135C8.91193 5.87132 9.03942 5.7588 9.17059 5.65127L9.17672 5.64627L9.24046 5.59251L9.17794 5.64502C9.32014 5.52874 9.46602 5.41747 9.61067 5.30494C9.48808 5.40122 9.36182 5.49374 9.24046 5.59251C9.38389 5.47498 9.53344 5.36371 9.68054 5.24993L9.70874 5.22743C9.84358 5.12365 9.97475 5.01863 10.1108 4.91736L10.1157 4.91361L10.1782 4.86609L10.1194 4.91111C10.2677 4.80108 10.4185 4.69731 10.5681 4.59103C10.4393 4.68355 10.3057 4.77107 10.1782 4.86609C10.329 4.75357 10.4859 4.64855 10.6404 4.54102L10.6723 4.51852C10.8096 4.42099 10.9456 4.32222 11.0854 4.22845L11.0903 4.2247L11.1503 4.18344L11.0964 4.22095C11.2496 4.11843 11.4078 4.02215 11.5622 3.92213C11.4262 4.00965 11.2852 4.09342 11.1503 4.18344C11.3097 4.07717 11.4727 3.9784 11.6345 3.87587L11.6701 3.85462C11.8111 3.7646 11.9508 3.67208 12.0942 3.58581L12.0991 3.58331C12.1179 3.57049 12.1371 3.5584 12.1568 3.54705L12.1077 3.5783C12.2671 3.48203 12.4301 3.39201 12.5919 3.29949C12.4473 3.38201 12.299 3.46078 12.1568 3.54705C12.3223 3.44703 12.4939 3.3545 12.6618 3.25948L12.701 3.23698C12.8457 3.15571 12.9879 3.07069 13.1338 2.99067L13.1387 2.98817L13.1938 2.95817L13.1497 2.98317C13.3164 2.89315 13.488 2.80938 13.656 2.72311C13.5027 2.80188 13.3458 2.87565 13.1938 2.95817C13.3679 2.86439 13.5457 2.77938 13.7209 2.68935C13.7356 2.68303 13.7499 2.67593 13.7639 2.6681C13.911 2.59433 14.0556 2.51682 14.2052 2.44555L14.2088 2.44305L14.2615 2.41679L14.2235 2.4368C14.3988 2.35303 14.5778 2.27551 14.7556 2.19549C14.5913 2.27051 14.4246 2.33928 14.2615 2.41679C14.443 2.33052 14.6281 2.25301 14.812 2.17049L14.8585 2.14923C15.0069 2.08297 15.154 2.01295 15.3047 1.95044L15.3084 1.94794C15.325 1.94139 15.3413 1.9343 15.3575 1.92668L15.3256 1.94169C15.5119 1.86292 15.7019 1.7929 15.8907 1.71914C15.713 1.7879 15.534 1.85417 15.3575 1.92668C15.5462 1.84792 15.7399 1.7779 15.9312 1.70288L15.9839 1.68288C16.1334 1.62412 16.2805 1.56285 16.4325 1.50659H16.435C16.4502 1.5 16.4658 1.49416 16.4816 1.48909L16.4546 1.49909C16.6569 1.42532 16.864 1.36031 17.0687 1.29154C16.8726 1.35781 16.6752 1.41907 16.4816 1.48909C16.6789 1.41782 16.88 1.3553 17.0786 1.28779L17.1398 1.26779C17.2894 1.21777 17.4353 1.16401 17.5848 1.11775H17.5873L17.6302 1.104L17.6093 1.1115C17.8226 1.04524 18.0396 0.987722 18.2541 0.927709L18.221 0.937711L18.3069 0.912705L18.3816 0.891451C18.5091 0.856443 18.6342 0.817684 18.7629 0.783926H18.7641L18.8021 0.773924L18.7898 0.777675C19.0105 0.721412 19.2348 0.673902 19.4579 0.62389L19.3795 0.641394C19.4923 0.615138 19.6038 0.587632 19.7178 0.563877L19.8257 0.538871C19.8723 0.528869 19.9176 0.516366 19.963 0.507614L19.9642 0.506364L19.9973 0.501363L19.9924 0.502613C20.2229 0.455102 20.457 0.417594 20.6911 0.377585L20.5661 0.39884C20.7745 0.362582 20.9804 0.320072 21.1888 0.288815L21.1901 0.287565L21.2109 0.285064H21.2158C21.4021 0.256308 21.5921 0.237553 21.7797 0.212548C21.6534 0.228801 21.5247 0.243805 21.3985 0.261309C21.5848 0.235053 21.7736 0.212548 21.9611 0.190043L21.7797 0.212548C21.9967 0.185042 22.2124 0.152534 22.4318 0.130029H22.4331L22.4588 0.127529H22.46C22.6451 0.108774 22.8327 0.0987722 23.019 0.0850191L22.8364 0.0987722C22.9908 0.0862694 23.1441 0.0737666 23.2985 0.0637643L23.019 0.0850191C23.2434 0.0675152 23.4665 0.0450101 23.692 0.0337576H23.6932L23.7214 0.0325073C23.9078 0.0225051 24.0965 0.0225051 24.2829 0.0175039L24.1787 0.0200045C24.452 0.0112525 24.7242 0 25 0C38.808 0 50 11.1913 50 24.9994C50 25.4182 49.9877 25.8346 49.9681 26.2484C49.9608 26.3859 49.9473 26.5222 49.9387 26.6585ZM10.4957 32.9962C10.6857 33.8339 11.523 34.359 12.3615 34.1664C21.0626 32.1785 28.452 32.9887 34.3214 36.577C35.0569 37.0246 36.0167 36.7958 36.4654 36.0569C36.5718 35.8824 36.6429 35.688 36.6745 35.4851C36.7061 35.2822 36.6976 35.0748 36.6493 34.8753C36.6011 34.6759 36.5142 34.4882 36.3938 34.3235C36.2734 34.1588 36.1218 34.0204 35.9481 33.9164C29.3579 29.888 21.1901 28.9515 11.6664 31.1295C11.4685 31.172 11.2808 31.2542 11.1144 31.3715C10.948 31.4887 10.8062 31.6386 10.6972 31.8124C10.5882 31.9862 10.5142 32.1803 10.4796 32.3836C10.4451 32.5868 10.4505 32.7951 10.4957 32.9962ZM9.49789 25.6808C9.81171 26.7098 10.9003 27.2899 11.9324 26.9786C19.8808 24.5668 30.1253 25.762 36.8429 29.893C37.7587 30.4543 38.96 30.168 39.5239 29.2528C39.6575 29.0347 39.747 28.7916 39.7871 28.5377C39.8272 28.2839 39.8172 28.0244 39.7576 27.7745C39.698 27.5246 39.59 27.2894 39.4399 27.0828C39.2899 26.8761 39.1009 26.7021 38.884 26.571C31.166 21.8312 19.8796 20.4946 10.7985 23.2502C10.5558 23.3214 10.3294 23.441 10.1324 23.602C9.93532 23.7631 9.77157 23.9624 9.6506 24.1885C9.52962 24.4146 9.45384 24.6629 9.42762 24.919C9.40141 25.1752 9.42529 25.4341 9.49789 25.6808ZM42.1742 18.1403C32.8969 12.6328 18.2174 12.1152 9.38634 14.7971C9.09508 14.8821 8.82331 15.0254 8.58684 15.2186C8.35037 15.4118 8.15393 15.651 8.00894 15.9223C7.86395 16.1936 7.77332 16.4916 7.7423 16.799C7.71129 17.1064 7.74051 17.417 7.82828 17.7127C8.20217 18.9493 9.5077 19.6457 10.7446 19.2706C18.4368 16.9363 31.7287 17.3777 39.7887 22.1625C40.3217 22.4798 40.9552 22.5718 41.5538 22.4187C42.1525 22.2657 42.6686 21.8798 42.9918 21.3436C43.1483 21.0795 43.2514 20.7862 43.2949 20.481C43.3385 20.1757 43.3217 19.8646 43.2455 19.566C43.1693 19.2675 43.0352 18.9875 42.8512 18.7426C42.6672 18.4978 42.437 18.293 42.1742 18.1403ZM24.9338 0H25C24.7597 0 24.5219 0.0112525 24.2829 0.0175039C24.4999 0.0112525 24.7156 0 24.9338 0Z" fill="white"/>
<path d="M69.416 37L61.448 13.32H67.24L73.128 31.752L79.016 13.32H84.808L76.84 37H69.416ZM90.146 18.024C89.2287 18.024 88.4713 17.7253 87.874 17.128C87.2767 16.5307 86.978 15.8267 86.978 15.016C86.978 14.1627 87.2767 13.4373 87.874 12.84C88.4713 12.2427 89.2287 11.944 90.146 11.944C91.0633 11.944 91.8207 12.2427 92.418 12.84C93.0153 13.4373 93.314 14.1627 93.314 15.016C93.314 15.8267 93.0153 16.5307 92.418 17.128C91.8207 17.7253 91.0633 18.024 90.146 18.024ZM87.394 37V20.04H92.866V37H87.394ZM107.639 37.32C106.551 37.32 105.655 37.1387 104.951 36.776C104.247 36.4133 103.725 36.0507 103.383 35.688C103.042 35.304 102.85 35.0693 102.807 34.984H102.551V37H97.0793V12.68H102.551V22.056H102.807C102.85 21.9707 103.042 21.736 103.383 21.352C103.725 20.968 104.247 20.6053 104.951 20.264C105.655 19.9013 106.551 19.72 107.639 19.72C108.898 19.72 109.986 19.976 110.903 20.488C111.821 20.9787 112.578 21.6507 113.175 22.504C113.794 23.336 114.253 24.2747 114.551 25.32C114.871 26.3653 115.031 27.432 115.031 28.52C115.031 29.608 114.871 30.6747 114.551 31.72C114.253 32.7653 113.794 33.7147 113.175 34.568C112.578 35.4 111.821 36.072 110.903 36.584C109.986 37.0747 108.898 37.32 107.639 37.32ZM105.943 32.936C106.733 32.936 107.394 32.7227 107.927 32.296C108.461 31.848 108.855 31.2933 109.111 30.632C109.367 29.9493 109.495 29.2453 109.495 28.52C109.495 27.7947 109.367 27.1013 109.111 26.44C108.855 25.7573 108.461 25.2027 107.927 24.776C107.394 24.328 106.733 24.104 105.943 24.104C105.154 24.104 104.493 24.328 103.959 24.776C103.426 25.2027 103.031 25.7573 102.775 26.44C102.519 27.1013 102.391 27.7947 102.391 28.52C102.391 29.2453 102.519 29.9493 102.775 30.632C103.031 31.2933 103.426 31.848 103.959 32.296C104.493 32.7227 105.154 32.936 105.943 32.936ZM121.459 18.024C120.541 18.024 119.784 17.7253 119.187 17.128C118.589 16.5307 118.291 15.8267 118.291 15.016C118.291 14.1627 118.589 13.4373 119.187 12.84C119.784 12.2427 120.541 11.944 121.459 11.944C122.376 11.944 123.133 12.2427 123.731 12.84C124.328 13.4373 124.627 14.1627 124.627 15.016C124.627 15.8267 124.328 16.5307 123.731 17.128C123.133 17.7253 122.376 18.024 121.459 18.024ZM118.707 37V20.04H124.179V37H118.707ZM130.056 37V24.392H127.4V20.04H130.056V18.952C130.056 18.3547 130.141 17.6827 130.312 16.936C130.482 16.168 130.792 15.4427 131.24 14.76C131.688 14.056 132.328 13.48 133.16 13.032C133.992 12.584 135.08 12.36 136.424 12.36C137.128 12.36 137.704 12.4133 138.152 12.52C138.6 12.6053 138.824 12.648 138.824 12.648V16.424C138.824 16.424 138.706 16.4133 138.472 16.392C138.258 16.3493 138.045 16.328 137.832 16.328C136.978 16.328 136.381 16.5627 136.04 17.032C135.698 17.5013 135.528 18.1413 135.528 18.952V20.04H138.792V24.392H135.528V37H130.056ZM143.016 43.24C142.419 43.24 141.939 43.2187 141.576 43.176C141.235 43.1333 141.064 43.112 141.064 43.112V38.76C141.064 38.76 141.203 38.7707 141.48 38.792C141.758 38.8133 142.11 38.824 142.536 38.824C143.475 38.824 144.254 38.7067 144.872 38.472C145.491 38.2587 146.024 37.8107 146.472 37.128L140.296 20.04H145.768L149.352 30.92L152.84 20.04H158.28L152.392 36.104C151.816 37.704 151.134 39.0267 150.344 40.072C149.576 41.1387 148.606 41.928 147.432 42.44C146.259 42.9733 144.787 43.24 143.016 43.24Z" fill="white"/>
</svg>
